<svg xmlns="http://www.w3.org/2000/svg" xmlns:xlink="http://www.w3.org/1999/xlink" width="411" height="258" viewBox="0 0 411 258"><defs><path id="x9hra" d="M288 506a8 8 0 0 1 8-8h393a8 8 0 0 1 8 8v240a8 8 0 0 1-8 8H296a8 8 0 0 1-8-8z"/><path id="x9hrd" d="M442 552v-26h227v26z"/><path id="x9hre" d="M442 656v-26h114v26z"/><path id="x9hrf" d="M442 604v-26h227v26z"/><path id="x9hrg" d="M316 656V526h98v130z"/><mask id="x9hrc" width="2" height="2" x="-1" y="-1"><path fill="#fff" d="M288 498h409v256H288z"/><use xlink:href="#x9hra"/></mask><filter id="x9hrb" width="431" height="279" x="277" y="487" filterUnits="userSpaceOnUse"><feOffset dy="1" in="SourceGraphic" result="FeOffset1032Out"/><feGaussianBlur in="FeOffset1032Out" result="FeGaussianBlur1033Out" stdDeviation="0.4 0.4"/></filter></defs><g><g transform="translate(-287 -498)"><g filter="url(#x9hrb)"><use fill="none" stroke-opacity=".12" stroke-width="0" mask="url(&quot;#x9hrc&quot;)" xlink:href="#x9hra"/><use fill-opacity=".12" xlink:href="#x9hra"/></g><use fill="#fff" xlink:href="#x9hra"/></g><g transform="translate(-287 -498)"><g><use fill="#f5f8fc" xlink:href="#x9hrd"/></g><g><use fill="#f5f8fc" xlink:href="#x9hre"/></g><g><use fill="#f5f8fc" xlink:href="#x9hrf"/></g><g><use fill="#f5f8fc" xlink:href="#x9hrg"/></g></g></g></svg>