<svg width="24" height="24" viewBox="0 0 24 24" fill="none" xmlns="http://www.w3.org/2000/svg">
<path fill-rule="evenodd" clip-rule="evenodd" d="M16.2426 16.2426C16.6331 15.8521 16.6331 15.219 16.2426 14.8284L13.4141 12L16.2426 9.17157C16.6331 8.78105 16.6331 8.14788 16.2426 7.75736C15.852 7.36684 15.2189 7.36683 14.8284 7.75736L11.9999 10.5858L9.1715 7.75736C8.78098 7.36683 8.14781 7.36683 7.75729 7.75736C7.36677 8.14788 7.36676 8.78105 7.75729 9.17157L10.5857 12L7.75729 14.8284C7.36676 15.219 7.36676 15.8521 7.75729 16.2426C8.14781 16.6332 8.78098 16.6332 9.1715 16.2426L11.9999 13.4142L14.8284 16.2426C15.2189 16.6332 15.852 16.6332 16.2426 16.2426Z" fill="white"/>
<circle cx="12" cy="12" r="10" stroke="white" stroke-width="2"/>
</svg>
