<svg xmlns="http://www.w3.org/2000/svg" fill-rule="evenodd" stroke-linejoin="round" stroke-miterlimit="1.41421" clip-rule="evenodd" viewBox="0 0 222 66"><path fill="#fff" fill-rule="nonzero" d="M68.115 58.065v2.393h-1.2V58.14l-2.677-4.837h1.222l2.04 3.465 2.01-3.503h1.23l-2.625 4.8zM72.518 54.285c1.53-1.381 3.884-1.381 5.415 0 .702.677 1.1 1.612 1.1 2.588 0 .975-.398 1.91-1.1 2.587-1.525 1.394-3.891 1.394-5.416 0-.702-.677-1.1-1.612-1.1-2.587 0-.976.398-1.911 1.1-2.588zm2.723.045c-.686-.008-1.347.263-1.83.75-.492.467-.765 1.121-.75 1.8-.014.681.258 1.337.75 1.808.48.486 1.139.757 1.822.75h.008c1.399 0 2.55-1.152 2.55-2.55v-.008c.013-.678-.259-1.332-.75-1.8-.473-.484-1.123-.755-1.8-.75zM87.037 53.273v4.207c.054.834-.249 1.652-.832 2.25-1.331 1.079-3.252 1.079-4.583 0-.587-.596-.893-1.415-.84-2.25v-4.207h1.215v4.207c-.004.052-.006.104-.006.156 0 .983.809 1.792 1.792 1.792.048 0 .095-.002.142-.005.513.028 1.015-.157 1.387-.51.356-.387.54-.901.51-1.425v-4.215h1.215zM93.945 60.458l-1.313-2.175H90.6v2.167h-1.208v-7.177h2.918c.766-.05 1.524.177 2.137.637.515.458.792 1.128.75 1.815.018.512-.115 1.018-.382 1.455-.265.4-.652.705-1.103.87l1.613 2.4h-1.373l-.007.008zM90.6 57.203h1.703c1.164 0 1.747-.483 1.747-1.448s-.583-1.42-1.748-1.365H90.6v2.843-.03zM102.128 53.273h3.119c.624-.033 1.242.135 1.763.48.423.302.666.799.645 1.32.012.373-.108.739-.337 1.035-.235.288-.56.489-.923.57.438.058.841.274 1.133.607.279.339.426.768.412 1.208.023.567-.239 1.111-.697 1.447-.566.379-1.241.563-1.92.525h-3.195v-7.192zm1.207 1.08v1.897h1.845c.32.018.637-.072.9-.255.218-.167.341-.431.33-.705.014-.269-.107-.528-.322-.69-.269-.175-.588-.259-.908-.24h-1.845v-.007zm0 3v2.062h1.845c.389.023.775-.071 1.11-.27.251-.166.401-.449.398-.75.009-.302-.142-.588-.398-.75-.335-.198-.721-.292-1.11-.27h-1.845v-.022zM109.973 53.273h1.215v7.185h-1.215zM114.195 54.285c1.532-1.385 3.891-1.385 5.422 0 .703.677 1.101 1.612 1.101 2.587 0 .976-.398 1.911-1.101 2.588-1.525 1.399-3.896 1.399-5.422 0-.703-.677-1.1-1.612-1.1-2.588 0-.975.397-1.91 1.1-2.587zm2.722.045c-.683-.006-1.341.265-1.822.75-.488.474-.764 1.127-.764 1.808 0 .68.276 1.333.764 1.807.48.487 1.139.758 1.822.75h.008c1.399 0 2.55-1.151 2.55-2.55v-.007c.013-.679-.259-1.332-.75-1.8-.473-.489-1.127-.763-1.808-.758zM130.215 60.458h-1.118v-5.37l-2.25 4.62H126l-2.25-4.62v5.37h-1.14v-7.185h1.44l2.37 4.77 2.362-4.77h1.425v7.185h.008zM137.865 54.39h-3.923v1.943h3.511v1.057h-3.511v1.98H138v1.088h-5.25v-7.185h5.13v1.117h-.015zM144.983 54.39h-2.25v6.098h-1.208V54.39h-2.25v-1.117h5.76v1.117h-.052zM151.185 60.458l-1.313-2.175h-2.032v2.167h-1.215v-7.177h2.917c.766-.05 1.524.177 2.138.637.514.458.791 1.128.75 1.815.017.512-.116 1.018-.383 1.455-.265.4-.651.705-1.102.87l1.613 2.4h-1.373v.008zm-3.345-3.255h1.703c1.165 0 1.747-.483 1.747-1.448s-.583-1.42-1.748-1.365h-1.702v2.843-.03zM154.665 53.273h1.208v7.185h-1.208zM161.558 53.243c.514-.002 1.023.097 1.5.292.447.191.852.469 1.192.818l-.705.885c-.261-.282-.574-.508-.922-.668-.338-.161-.707-.245-1.08-.247-.685-.011-1.344.26-1.823.75-.984.985-.984 2.606 0 3.592.479.489 1.138.76 1.823.75.754-.005 1.477-.313 2.002-.855l.75.803c-.373.365-.81.657-1.29.862-.473.207-.984.314-1.5.315-.99.024-1.949-.355-2.655-1.05-.709-.677-1.101-1.622-1.08-2.602-.019-.975.38-1.912 1.095-2.573.717-.704 1.688-1.09 2.693-1.072zM169.297 53.273h2.865c.754-.049 1.501.177 2.1.637.515.458.792 1.128.751 1.815.039.709-.236 1.401-.751 1.89-.588.483-1.339.725-2.1.675h-1.65v2.168h-1.215v-7.185zm1.208 1.117v2.843h1.597c1.155 0 1.733-.483 1.733-1.448s-.575-1.43-1.725-1.395h-1.605zM181.005 58.838h-3.623l-.69 1.62h-1.26l3.173-7.185h1.245l3.15 7.185h-1.29l-.705-1.62zm-.465-1.08l-1.358-3.195-1.357 3.195h2.715zM189.113 60.458l-1.313-2.175h-2.033v2.167h-1.207v-7.177h2.94c.766-.05 1.524.177 2.137.637.515.458.792 1.128.75 1.815.018.512-.115 1.018-.382 1.455-.265.4-.652.705-1.103.87l1.613 2.4h-1.373l-.03.008zm-3.345-3.255h1.733c1.165 0 1.747-.483 1.747-1.448s-.582-1.42-1.747-1.365h-1.703v2.843l-.03-.03zM197.498 54.39h-2.25v6.098h-1.216V54.39h-2.25v-1.117h5.761v1.117h-.045zM205.373 60.458h-1.193l-3.825-5.153v5.153h-1.208v-7.185h1.193l3.847 5.16v-5.16h1.193v7.185h-.008zM213 54.39h-3.923v1.943h3.51v1.057h-3.51v1.98h4.043v1.088h-5.25v-7.185H213v1.117zM219.788 60.458l-1.313-2.175h-2.032v2.167h-1.193v-7.177h2.917c.766-.05 1.524.177 2.138.637.514.458.791 1.128.75 1.815.017.512-.116 1.018-.382 1.455-.266.4-.652.705-1.103.87l1.612 2.4h-1.372l-.022.008zm-3.345-3.255h1.702c1.165 0 1.748-.483 1.748-1.448s-.583-1.42-1.748-1.365h-1.702v2.843-.03zM48.75 46.08c-.57.024-1.122-.21-1.5-.637-.432-.569-.643-1.276-.593-1.988l.001-10.815c.035-1.515-.548-2.98-1.613-4.057-1.039-1.062-2.464-1.66-3.949-1.66-1.485 0-2.909.598-3.949 1.66-1.055 1.082-1.632 2.545-1.597 4.057v10.8c.058.715-.147 1.428-.577 2.003-.361.411-.886.642-1.433.63-.57.021-1.12-.213-1.5-.638-.433-.568-.644-1.275-.592-1.987l-.001-11.138c.134-5.187 4.457-9.372 9.646-9.337 5.205-.059 9.555 4.133 9.689 9.337v11.138c.058.715-.148 1.427-.577 2.002-.363.412-.891.641-1.44.623l-.015.007zM71.865 46.08c-.57.024-1.122-.21-1.5-.637-.442-.565-.661-1.273-.615-1.988V32.64c.034-1.514-.548-2.98-1.613-4.057-1.04-1.06-2.464-1.657-3.948-1.657-1.485 0-2.909.597-3.949 1.657-1.046 1.086-1.611 2.549-1.567 4.057l-.001 10.808c.056.716-.152 1.428-.585 2.002-.359.412-.886.64-1.432.623-.57.022-1.121-.212-1.5-.638-.437-.569-.65-1.279-.6-1.995V32.31c.243-5.171 4.563-9.293 9.739-9.293 2.542 0 4.986.994 6.806 2.768 1.755 1.721 2.761 4.067 2.798 6.525l-.001 11.138c.058.715-.148 1.427-.577 2.002-.363.407-.887.635-1.432.622l-.023.008zM140.07 22.973c-.678-.05-1.349.162-1.875.592-.421.382-.649.933-.623 1.5-.026.549.201 1.08.615 1.44.598.429 1.33.632 2.063.57h5.79v16.35c-.058.726.156 1.448.6 2.025.377.428.931.658 1.5.623.565.018 1.111-.206 1.5-.615.462-.572.685-1.301.623-2.033V27.053H156c.744.054 1.485-.153 2.093-.585.43-.348.67-.881.645-1.433.03-.571-.205-1.126-.638-1.5-.603-.449-1.351-.662-2.1-.6h-15.9l-.03.038zM24.593 22.973c-.587-.031-1.157.203-1.553.637-.457.617-.673 1.38-.608 2.145l.001 17.468c-.057.773.164 1.541.622 2.167.374.436.925.682 1.5.668.615.033 1.213-.212 1.627-.668.482-.623.712-1.405.645-2.19V25.575c.045-.704-.186-1.399-.645-1.935-.408-.441-.988-.685-1.59-.667zM179.415 22.973c-.586-.031-1.157.203-1.552.637-.458.617-.674 1.38-.608 2.145v17.468c-.058.779.166 1.553.63 2.182.373.437.925.683 1.5.668.599.025 1.179-.217 1.583-.66.481-.624.712-1.406.645-2.191V25.575c.053-.711-.176-1.415-.638-1.957-.404-.428-.972-.663-1.56-.645zM88.365 46.073c-1.592.024-3.173-.259-4.657-.833-2.706-1.072-4.823-3.26-5.805-6-.529-1.518-.783-3.118-.75-4.725-.02-1.627.249-3.244.795-4.777.485-1.355 1.252-2.593 2.25-3.63.999-1.018 2.207-1.809 3.54-2.318 3.029-1.105 6.353-1.105 9.382 0 2.724 1.049 4.854 3.245 5.82 6 1.052 3.069 1.052 6.403 0 9.473-.487 1.361-1.254 2.605-2.25 3.652-1 1.027-2.21 1.825-3.547 2.34-1.527.574-3.148.851-4.778.818zm0-19.5c-1.317-.03-2.617.31-3.75.982-1.079.677-1.926 1.666-2.43 2.835-.567 1.305-.846 2.717-.817 4.14-.03 1.412.247 2.814.809 4.11.511 1.169 1.36 2.16 2.438 2.843 1.129.683 2.43 1.032 3.75 1.005 1.975.079 3.885-.728 5.205-2.198 1.31-1.615 1.976-3.661 1.867-5.737.115-2.087-.551-4.144-1.867-5.768-1.317-1.478-3.227-2.293-5.205-2.22v.008zM102.21 22.973c-.356-.002-.707.094-1.012.277-.31.182-.568.44-.751.75-.148.223-.233.482-.247.75.012.254.052.505.12.75.088.334.195.662.322.983.143.375.285.75.42 1.095l5.798 14.362c.6 1.425.982 2.25 1.207 2.7.221.4.529.746.9 1.013.455.306.998.453 1.545.42.449.016.895-.079 1.298-.278.357-.193.663-.468.892-.802.305-.471.557-.974.75-1.5.255-.638.465-1.163.63-1.575l5.865-14.528.263-.645.172-.427c.123-.299.225-.604.308-.915.07-.245.108-.497.112-.75-.001-.458-.201-.894-.547-1.193-.367-.36-.866-.555-1.38-.54-.437-.06-.877.097-1.178.42-.474.672-.836 1.417-1.072 2.205l-5.318 13.395-.817 2.25-.795-2.25-4.943-12.787c-.24-.623-.442-1.26-.75-1.875-.125-.383-.332-.734-.607-1.028-.351-.226-.77-.324-1.185-.277zM195.818 22.973c-1.583-.016-3.155.264-4.636.825-1.334.51-2.544 1.3-3.547 2.317-.995 1.04-1.762 2.276-2.25 3.63-1.059 3.096-1.059 6.459 0 9.555.488 1.356 1.255 2.595 2.25 3.638 1.001 1.016 2.208 1.806 3.54 2.317 1.48.56 3.052.84 4.635.825h4.965c.715.057 1.427-.148 2.002-.577.414-.368.642-.902.623-1.455.025-.571-.21-1.123-.638-1.5-.569-.437-1.279-.651-1.995-.6h-4.965c-5.94 0-6.75-5.175-6.81-6.75v-1.29c.098-1.62.878-6.795 6.81-6.795h4.965c.713.049 1.419-.161 1.988-.593.402-.386.63-.92.63-1.477 0-.558-.228-1.092-.63-1.478-.576-.434-1.291-.642-2.01-.585h-4.965l.037-.007zM158.865 34.635v8.588c-.06.778.161 1.553.623 2.182.372.438.925.684 1.5.668.601.026 1.184-.216 1.59-.66.477-.625.705-1.407.637-2.191v-8.714-.63c.097-1.598.87-6.75 6.817-6.75h3.128c.712.051 1.419-.16 1.987-.593.405-.385.634-.919.634-1.477 0-.559-.229-1.093-.633-1.478-.578-.43-1.292-.638-2.011-.585h-3.127c-1.585-.015-3.159.265-4.642.825-1.333.509-2.541 1.299-3.541 2.318-.998 1.039-1.765 2.279-2.25 3.637-.529 1.485-.798 3.051-.794 4.628v.262l.082-.03zM208.598 46.073h5.249c1.137.039 2.272-.108 3.361-.435 1.264-.453 2.328-1.342 3-2.505 1.336-2.227 1.19-5.056-.368-7.133l-.09-.142c-.678-.794-1.484-1.469-2.385-1.995l-.165-.098c-.54-.322-1.5-.802-2.925-1.5h-.06c-.892-.407-1.761-.862-2.603-1.365-.683-.339-1.198-.944-1.424-1.672-.177-.665.015-1.375.502-1.86.127-.106.275-.183.435-.225.548-.111 1.106-.159 1.665-.143h5.782c.693.052 1.381-.151 1.935-.57.413-.363.641-.891.623-1.44.023-.541-.197-1.064-.6-1.425-.562-.419-1.259-.619-1.958-.562H213c-1.015-.017-2.026.12-3 .405h-.083c-1.226.386-2.285 1.18-3 2.25-.647.993-.98 2.159-.952 3.345.002 1.268.409 2.504 1.162 3.525.646.831 1.442 1.534 2.348 2.07l.337.202c.555.323 1.403.75 2.58 1.298l.24.112c2.475 1.178 3.375 1.853 3.69 2.25.419.461.644 1.065.631 1.688.042.726-.403 1.397-1.088 1.642-.721.26-1.484.38-2.25.353h-5.205c-.652-.033-1.295.166-1.815.562-.403.358-.623.879-.6 1.418-.023.55.203 1.082.615 1.447.513.397 1.152.599 1.8.57h.24l-.053-.067zM6.96 33.758v-.075c0-.363-.298-.66-.66-.66L.66 32.16c-.362 0-.66.298-.66.66v1.793c0 .362.298.66.66.66l5.64-.855c.362 0 .66-.298.66-.66M14.4 50.828c-.256-.254-.674-.254-.93 0L8.873 54.21c-.254.256-.254.674 0 .93l1.267 1.268c.256.253.674.253.93 0l3.383-4.598c.124-.124.195-.293.195-.469s-.071-.345-.195-.468l-.053-.045zM31.598 58.32H31.5c-.362 0-.66.298-.66.66L30 64.62c0 .362.298.66.66.66h1.793c.362 0 .66-.298.66-.66l-.863-5.64c0-.362-.298-.66-.66-.66M48.675 16.56c.256.254.674.254.93 0l4.597-3.382c.254-.256.254-.675 0-.93l-1.267-1.268c-.256-.254-.674-.254-.93 0l-3.383 4.598c-.253.255-.253.674.001.93l.052.052zM13.5 16.613c.256.253.674.253.93 0l.052-.053c.125-.124.196-.293.196-.469s-.071-.345-.196-.468L11.1 11.025c-.256-.254-.674-.254-.93 0l-1.275 1.268c-.254.255-.254.674 0 .93l4.605 3.39zM49.65 50.828c-.256-.254-.674-.254-.93 0-.125.123-.195.292-.195.468 0 .176.07.345.195.469l3.33 4.65c.256.254.674.254.93 0l1.275-1.275c.254-.256.254-.674 0-.93l-4.605-3.383zM22.245 56.325H22.2c-.05-.02-.104-.031-.158-.031-.171 0-.326.105-.389.264l-1.875 3.082c-.088.212.013.458.225.548l1.057.434c.212.088.458-.013.548-.224l.892-3.533c.02-.05.031-.104.031-.158 0-.171-.105-.326-.263-.389M40.875 11.123h.045c.212.087.458-.014.547-.225l1.876-3.113c.087-.212-.014-.458-.225-.548l-1.058-.435c-.212-.087-.458.014-.547.225l-.863 3.526c-.082.214.021.458.233.547M4.883 23.768l3.525.862c.211.088.458-.014.547-.225L9 24.39c.088-.212-.014-.458-.225-.547L5.64 21.93c-.212-.083-.455.017-.548.225l-.435 1.065c-.087.212.014.458.225.548M41.505 56.513c-.092-.209-.335-.309-.547-.225h-.046c-.156.062-.259.214-.259.382 0 .057.012.113.035.165l.869 3.555c.09.211.336.313.548.225l1.057-.435c.213-.092.314-.341.225-.555l-1.882-3.112zM22.17 11.153h.045c.211-.09.313-.336.225-.548l-.87-3.525c-.058-.17-.218-.285-.398-.285-.059 0-.118.013-.172.038l-1.058.442c-.211.089-.312.336-.225.548l1.898 3.067c.089.211.336.313.547.225M9 43.14v-.045c-.089-.211-.336-.313-.547-.225l-3.526.87c-.156.063-.259.215-.259.383 0 .057.012.113.035.165l.412 1.027c.089.211.336.313.548.225l3.105-1.882c.198-.086.3-.312.232-.518M138.54 46.08c.356.002.707-.094 1.012-.277.31-.183.568-.441.751-.75.148-.224.233-.483.247-.75-.012-.254-.052-.506-.12-.75-.088-.334-.195-.662-.322-.983-.143-.375-.286-.75-.421-1.095l-5.797-14.362c-.6-1.425-.983-2.25-1.208-2.7-.22-.401-.528-.747-.9-1.013-.454-.306-.997-.454-1.544-.42-.449-.017-.895.079-1.298.278-.357.193-.663.468-.892.802-.305.471-.557.974-.75 1.5-.255.638-.465 1.163-.63 1.575l-5.866 14.505-.262.645-.172.428c-.123.298-.225.603-.308.915-.07.244-.108.496-.112.75.001.457.201.893.547 1.192.367.36.866.555 1.38.54.437.06.877-.097 1.177-.42.475-.672.837-1.417 1.073-2.205l5.317-13.395.818-2.25.795 2.25 4.942 12.788c.24.622.443 1.26.75 1.875.126.382.333.733.608 1.027.349.233.767.339 1.185.3z"/><path fill="#d22630" fill-rule="nonzero" d="M32.843 0h-2.566c-.518 0-.945.427-.945.945l1.23 8.063c.005.512.425.933.938.937h.105c.518 0 .945-.427.945-.945l1.2-8.063C33.746.436 33.344.02 32.842 0"/></svg>